<svg xmlns="http://www.w3.org/2000/svg" width="339.948" height="76.065" viewBox="0 0 339.948 76.065">
    <g transform="translate(267.939 0)">
        <g transform="translate(0)">
            <g transform="translate(0.358 0.358)">
                <path d="M2417.7,78.188a35.745,35.745,0,0,1-35.647-35.832V2.839h71.291l0,39.517A35.745,35.745,0,0,1,2417.7,78.188" transform="translate(-2382.051 -2.839)" fill="#fff" fill-rule="evenodd"></path>
            </g>
            <path d="M2451.217,0V39.869a36,36,0,1,1-72.009,0V0Zm-1.342,39.874a34.663,34.663,0,1,1-69.326,0V1.337h69.326V39.869" transform="translate(-2379.208 0.005)" fill="#231f20" fill-rule="evenodd"></path>
            <g transform="translate(3.13 3.131)">
                <path d="M2438.31,93.891a1.345,1.345,0,1,1-2.69.008,2.108,2.108,0,0,0,1.349-.721A2.169,2.169,0,0,0,2438.31,93.891Zm-7.625-3.578a3.563,3.563,0,0,1-1.7-.86,3.575,3.575,0,0,1,.868-1.693,2.1,2.1,0,0,0,1.092,1.056,2.111,2.111,0,0,0-.263,1.5Zm1.057-8.346a3.576,3.576,0,0,1,.291-1.889,3.579,3.579,0,0,1,1.881.3,2.1,2.1,0,0,0-.667,1.378,2.161,2.161,0,0,0-1.5.21Zm8.264-1.584a3.562,3.562,0,0,1,1.886-.3,3.577,3.577,0,0,1,.292,1.88,2.1,2.1,0,0,0-1.516-.209A2.176,2.176,0,0,0,2440.006,80.383Zm4.058,7.369a3.547,3.547,0,0,1,.874,1.7,3.567,3.567,0,0,1-1.7.86,2.113,2.113,0,0,0-.267-1.507A2.17,2.17,0,0,0,2444.063,87.753Zm-7.1,1.327a2.218,2.218,0,1,1,2.217-2.218A2.219,2.219,0,0,1,2436.963,89.08Zm-32.874-64.194h27.194c-1.011,1.112-2,2.247-2.9,3.452-3.426,4.576-3.089,10.96-6.551,15.435-3.024,3.913-8.151,4.937-10.984,8.551-3.211,4.1-3.417,9.728-6.441,13.919a33.661,33.661,0,0,1-.318-4.613Zm31.978,12.844v23.9A33.077,33.077,0,0,1,2420.079,90a33.152,33.152,0,0,1-11.74-12.1,35.3,35.3,0,0,0,4.77-5.8c2.7-4.38,3.1-9.924,6.3-14,2.965-3.778,8.193-4.825,10.977-8.541,2.656-3.543,3.473-8.027,5.679-11.819" transform="translate(-2404.089 -24.886)" fill="#00a650"></path>
            </g>
            <g transform="translate(29.377 3.131)">
                <path d="M2620.278,24.884h31.979V61.628A33.076,33.076,0,0,1,2636.266,90a33.083,33.083,0,0,1-15.988-28.369Zm30.657,21.23c0,2.144-1.938,3.071-1.938,4.672,0,1.894,1.873,2.809,1.873,4.637a1.782,1.782,0,0,1-2.448,1.883.857.857,0,0,0,.6-.882c0-2.239-4.8-2.121-4.8-5.638,0-1.838,1.3-3.3,1.3-4.388a1.785,1.785,0,0,0-1.125-1.574,2.144,2.144,0,0,1,3.054.8,5.433,5.433,0,0,0,.253-3.489c2.254.864,3.219,2.332,3.223,3.973Zm-18.3-13.372c.5.84,1.787,0,1.787,0S2632.871,31.271,2632.636,32.742Zm7.95,46.68a3.363,3.363,0,0,1,1.2-2.159,1.106,1.106,0,0,0,.167.013,1.076,1.076,0,0,0,1.077-1.078,1.06,1.06,0,0,0-.1-.455c2.954-5.273,2.173-6.039-2.406-9.78-1.254-1.024-1.64-4.019-1.64-6.771-1.82-4.253-6.739-3.76-8.6-7.935l2.15.117a2.559,2.559,0,0,0,2.245-1.156c.343-.512,0-1.211-.549-1.023a1.76,1.76,0,0,1-1.669,1.2l-5.342-.288c-1.062,1.057-.834,2.585,1.025,3.383v.8h1.271a5.064,5.064,0,0,1,.05,3.6,3.938,3.938,0,0,1-2.162-1.213c0-.126.021-.231.021-.339a1.078,1.078,0,0,0-1.08-1.077,1.056,1.056,0,0,0-.242.028c-.605-.961-.51-3.017-2.076-5.3l1.186-1.442,4.338-1.459c.125-5.086,5.969-6.263,6.868-9.977a2.566,2.566,0,0,0,2.636-1.558.6.6,0,0,0-.7-.875c-.438,1.232-1.016,1.45-1.825,1.45-2.105,0-3.806-.354-4.086.584-.476,1.582-2.672.59-2.672.59l.535-.391a1.149,1.149,0,0,0,.138.008c.4,0,.736-.214.736-.478s-.332-.478-.736-.478-.737.214-.737.478a.18.18,0,0,0,0,.049l-.506.366a.735.735,0,0,1-.779-.75.477.477,0,0,0,.021-.952,1.388,1.388,0,0,1,.585-.965l3.744-2.973a16.253,16.253,0,0,1,2.107-1.26c-.059-.815.251-1.89.251-2.651a3.236,3.236,0,0,1,1.551,1.542,1.961,1.961,0,0,1-.025,1.672.679.679,0,0,0,1.154-.5,2.872,2.872,0,0,0-.091-1.143,25.559,25.559,0,0,0,6.665.339,6.541,6.541,0,0,1-2.326,1.662,6.962,6.962,0,0,1,4.472,2.755,9.2,9.2,0,0,1-2.408.8c1.509,1.313,2.1,3.279,3.39,4.074a6.909,6.909,0,0,1-4.14-.035,6.341,6.341,0,0,0,2.453,2.894,19.02,19.02,0,0,1-4.138,1.294,6.562,6.562,0,0,0,1.525,1.82,7.364,7.364,0,0,0-2.677.617c-.1,1.378-.479,4.237,3.013,7.923,4.655,3.519,5.813,6.185,2.145,10.915,0,2.4.4,3.361,1.642,5.81-.1.239-.615,1.39-1.123,2.8a14.615,14.615,0,0,0-.976,4.728.784.784,0,0,0-.788.836V79.37a5.62,5.62,0,0,1-3.776.052Zm-18.111-31.047a3.686,3.686,0,0,1-.673-2.343,1.019,1.019,0,0,0,.264-.194,1.079,1.079,0,0,0,0-1.524,1.116,1.116,0,0,0-.206-.162c.608-1.791,1.789-2.722,2.268-5.264h1.854l4.406,3.457a7.258,7.258,0,0,0-1.739,3.241l-2.344-4.365c-1.506,0-2.43,1.246-1.649,3.1l-.567.569.871.924a5.009,5.009,0,0,1-2.486,2.557Zm6.909,20.226h6.242c0-2.572-1.91-4.261-1.91-7.27a3.487,3.487,0,0,1,2.825-3.8,5.766,5.766,0,0,1,1.355,1.87,13.367,13.367,0,0,0,1.086,5.753s-1.416,1.08-1.416,5.052c0,0-5.633-.258-6.308.477h-.887v1.272a5.057,5.057,0,0,1-3.6.046,3.483,3.483,0,0,1,1.215-2.158c.127,0,.23.021.339.021a1.078,1.078,0,0,0,1.077-1.077,1.316,1.316,0,0,0-.016-.188ZM2615.41,92.328c-1.457-1.059-2-2.9-.6-3.605a.576.576,0,0,0-.221-.681c-1.552.25-2.191-1.557-1.633-3.271s2.137-2.8,3.244-1.685a.575.575,0,0,0,.578-.421c-.716-1.4.8-2.564,2.608-2.564s3.322,1.166,2.6,2.564a.574.574,0,0,0,.578.421c1.109-1.114,2.688-.027,3.243,1.687s-.082,3.52-1.633,3.27a.571.571,0,0,0-.219.681c1.4.709.854,2.547-.6,3.606s-3.375,1.01-3.616-.543a.572.572,0,0,0-.714,0C2618.785,93.339,2616.867,93.387,2615.41,92.328Zm7.442-5.468a3.469,3.469,0,1,1-3.469-3.47,3.47,3.47,0,0,1,3.469,3.47" transform="translate(-2612.757 -24.884)" fill="#ed1c24" fill-rule="evenodd"></path>
            </g>
        </g>
    </g>
    <path d="M1.15,14.06H2.933V5.275h.032a19.957,19.957,0,0,0,.71,2.461L5.929,14.06H7.68L9.952,7.735a23.743,23.743,0,0,0,.694-2.382h.032V14.06h1.909V2.388H9.936L6.907,11.647H6.876L3.753,2.388H1.15ZM15.062,4.234H17.05V2.546H15.062Zm.016,9.827h1.956V5.685H15.078Zm4.211,0h1.956V8.272a3.4,3.4,0,0,1,2.271-1.088c.852,0,1.246.426,1.246,1.356V14.06h1.956V8.051a2.255,2.255,0,0,0-2.413-2.524,4.152,4.152,0,0,0-3.06,1.293V5.685H19.289Zm9.574-9.827h1.987V2.546H28.864Zm.016,9.827h1.956V5.685H28.879Zm7.271.174c1.909,0,3.5-.82,3.5-2.587,0-1.956-1.751-2.319-3.186-2.634-.994-.221-1.83-.426-1.83-1.1,0-.473.347-.852,1.42-.852a4.206,4.206,0,0,1,2.366.915l.931-1.262a4.914,4.914,0,0,0-3.439-1.183c-1.845,0-3.107.994-3.107,2.461,0,1.94,1.719,2.319,3.155,2.65,1.009.237,1.861.442,1.861,1.12,0,.694-.631.962-1.672.962a4.127,4.127,0,0,1-2.634-.994L32.46,12.909A5.3,5.3,0,0,0,36.151,14.234Zm8.281-.063a9.569,9.569,0,0,0,1.42-.11V12.53a3.159,3.159,0,0,1-.836.11c-.962,0-1.23-.363-1.23-1.262V7.231h2.161V5.685H43.785V2.767h-1.94V5.685H40.394V7.231h1.451v4.637C41.845,13.382,42.3,14.171,44.432,14.171Zm6.593.063a4.52,4.52,0,0,0,3.517-1.514L53.517,11.71a3.036,3.036,0,0,1-2.35.978,2.072,2.072,0,0,1-2.24-2.177h5.726v-.457c0-3.407-1.8-4.527-3.675-4.527a3.98,3.98,0,0,0-3.991,4.353C46.987,12.956,48.927,14.234,51.025,14.234ZM48.959,9.06a1.964,1.964,0,0,1,2-1.956c1.167,0,1.8.678,1.909,1.956Zm7.4,5H58.3v-5.3a2.841,2.841,0,0,1,2.587-1.483c.11,0,.426.016.521.032l.063-1.782H61.34a3.279,3.279,0,0,0-3.013,1.53H58.3V5.685h-1.94Zm6.562-9.827h1.987V2.546H62.918Zm.016,9.827h1.956V5.685H62.934Zm6.53.158a4.152,4.152,0,0,0,3.06-1.293V14.06h1.956V5.685H72.524v5.82a3.4,3.4,0,0,1-2.271,1.088c-.852,0-1.246-.426-1.246-1.356V5.685H67.05v6.01A2.255,2.255,0,0,0,69.464,14.218Zm7.193-.158H78.6V8.272a3.318,3.318,0,0,1,2.145-1.088c.915,0,1.183.426,1.183,1.356V14.06h1.94V8.272A3.284,3.284,0,0,1,86.01,7.183c.915,0,1.183.426,1.183,1.356V14.06h1.94V8.051a2.24,2.24,0,0,0-2.445-2.524A3.97,3.97,0,0,0,83.754,6.9a2.1,2.1,0,0,0-2.287-1.372A3.812,3.812,0,0,0,78.6,6.836V5.685h-1.94Zm19.259,0h1.94V7.231h1.83V5.685h-1.83V4.944c0-.9.568-1.088,1.262-1.088a3.625,3.625,0,0,1,.662.063V2.42c-.142-.016-.789-.079-1.151-.079-2.129,0-2.713,1.088-2.713,2.492v.852H94.464V7.231h1.451Zm9.464-9.212h1.782V2.94h-1.782Zm-3.107,0h1.767V2.94h-1.767Zm1.136,9.369a4.152,4.152,0,0,0,3.06-1.293V14.06h1.956V5.685h-1.956v5.82a3.4,3.4,0,0,1-2.271,1.088c-.852,0-1.246-.426-1.246-1.356V5.685h-1.956v6.01A2.255,2.255,0,0,0,103.407,14.218Zm7.193-.158h1.94v-5.3a2.841,2.841,0,0,1,2.587-1.483c.11,0,.426.016.521.032l.063-1.782h-.126a3.279,3.279,0,0,0-3.013,1.53h-.032V5.685H110.6Zm10.694,0h7.35v-1.8h-5.379V2.388h-1.972Zm10.789.126a4.03,4.03,0,0,0,3.092-1.2,3.035,3.035,0,0,0,.189,1.073h1.956a5.739,5.739,0,0,1-.237-2.051V8.556c0-1.956-.773-3.028-3.013-3.028a6,6,0,0,0-4.038,1.514l.946,1.215A4.545,4.545,0,0,1,133.8,7.12c.931,0,1.372.363,1.372,1.2v.252c-3.912.442-5.458,1.656-5.458,3.47A2.116,2.116,0,0,0,132.083,14.187Zm.71-1.5c-.71,0-1.167-.347-1.167-1.009,0-.915,1.23-1.483,3.549-1.8v1.845A3.344,3.344,0,0,1,132.793,12.688Zm6.372,1.372h1.956V8.272a3.4,3.4,0,0,1,2.271-1.088c.852,0,1.246.426,1.246,1.356V14.06h1.956V8.051a2.255,2.255,0,0,0-2.413-2.524,4.152,4.152,0,0,0-3.06,1.293V5.685h-1.956Zm12.366.126a3.339,3.339,0,0,0,2.666-1.262,3.144,3.144,0,0,0,.189,1.136h2a5.319,5.319,0,0,1-.252-2.051V2.388H154.2v4.2a3.193,3.193,0,0,0-2.4-1.057c-2.145,0-3.581,1.467-3.581,4.369S149.623,14.187,151.531,14.187Zm.631-1.593c-1.246,0-2-.883-2-2.65,0-1.861.6-2.808,2.066-2.808A2.555,2.555,0,0,1,154.2,8.177v3.36A2.817,2.817,0,0,1,152.162,12.594Zm7.745,1.467h1.8l1.514-5.82h.032l1.514,5.82h1.814l2.492-8.376H167.3l-.946,3.533c-.268.915-.41,1.514-.662,2.6h-.032c-.237-1.073-.379-1.7-.647-2.634l-.931-3.5h-1.577l-.883,3.439c-.268.962-.41,1.562-.662,2.7h-.032c-.221-1.073-.379-1.719-.631-2.666l-.915-3.47h-1.972Zm10.5-9.827H172.4V2.546h-1.987Zm.016,9.827h1.956V5.685h-1.956Zm4.211,0h1.94v-5.3a2.841,2.841,0,0,1,2.587-1.483c.11,0,.426.016.521.032l.063-1.782h-.126a3.279,3.279,0,0,0-3.013,1.53h-.032V5.685h-1.94Zm9.748.11a9.569,9.569,0,0,0,1.42-.11V12.53a3.158,3.158,0,0,1-.836.11c-.962,0-1.23-.363-1.23-1.262V7.231H185.9V5.685H183.74V2.767H181.8V5.685h-1.451V7.231H181.8v4.637C181.8,13.382,182.257,14.171,184.387,14.171Zm6.088.063c1.909,0,3.5-.82,3.5-2.587,0-1.956-1.751-2.319-3.186-2.634-.994-.221-1.83-.426-1.83-1.1,0-.473.347-.852,1.42-.852a4.206,4.206,0,0,1,2.366.915l.931-1.262a4.914,4.914,0,0,0-3.439-1.183c-1.845,0-3.107.994-3.107,2.461,0,1.94,1.719,2.319,3.155,2.65,1.009.237,1.861.442,1.861,1.12,0,.694-.631.962-1.672.962a4.127,4.127,0,0,1-2.634-.994l-1.057,1.183A5.3,5.3,0,0,0,190.475,14.234Zm8.517,0a3.682,3.682,0,0,0,3.612-2.461L201,11.19a1.853,1.853,0,0,1-1.956,1.451c-1.278,0-2-.978-2-2.76,0-2,.931-2.729,2.035-2.729a1.831,1.831,0,0,1,1.861,1.4l1.64-.584a3.4,3.4,0,0,0-3.47-2.445c-1.861,0-4.022,1.151-4.022,4.353C195.081,12.941,197.052,14.234,198.992,14.234Zm5.158-.174h1.956V8.272a3.4,3.4,0,0,1,2.271-1.088c.852,0,1.246.426,1.246,1.356V14.06h1.956V8.051a2.255,2.255,0,0,0-2.413-2.524,4.152,4.152,0,0,0-3.06,1.293V2.388H204.15Zm11.341.126a4.03,4.03,0,0,0,3.092-1.2,3.036,3.036,0,0,0,.189,1.073h1.956a5.739,5.739,0,0,1-.237-2.051V8.556c0-1.956-.773-3.028-3.013-3.028a6,6,0,0,0-4.038,1.514l.946,1.215A4.545,4.545,0,0,1,217.21,7.12c.931,0,1.372.363,1.372,1.2v.252c-3.912.442-5.458,1.656-5.458,3.47A2.116,2.116,0,0,0,215.491,14.187Zm.71-1.5c-.71,0-1.167-.347-1.167-1.009,0-.915,1.23-1.483,3.549-1.8v1.845A3.344,3.344,0,0,1,216.2,12.688Zm7.1,1.372h1.94V7.231h1.83V5.685h-1.83V4.944c0-.9.568-1.088,1.262-1.088a3.625,3.625,0,0,1,.662.063V2.42c-.142-.016-.789-.079-1.151-.079-2.129,0-2.713,1.088-2.713,2.492v.852h-1.451V7.231H223.3Zm8.423.11a9.569,9.569,0,0,0,1.42-.11V12.53a3.159,3.159,0,0,1-.836.11c-.962,0-1.23-.363-1.23-1.262V7.231h2.161V5.685h-2.161V2.767h-1.94V5.685h-1.451V7.231h1.451v4.637C229.135,13.382,229.592,14.171,231.722,14.171ZM3.232,32.418a4.152,4.152,0,0,0,3.06-1.293V32.26H8.248V23.885H6.292V29.7a3.4,3.4,0,0,1-2.271,1.088c-.852,0-1.246-.426-1.246-1.356V23.885H.819v6.01A2.255,2.255,0,0,0,3.232,32.418Zm7.193-.158h1.956V26.471a3.4,3.4,0,0,1,2.271-1.088c.852,0,1.246.426,1.246,1.356V32.26h1.956v-6.01a2.255,2.255,0,0,0-2.413-2.524,4.152,4.152,0,0,0-3.06,1.293V23.885H10.425Zm12.366.126a3.339,3.339,0,0,0,2.666-1.262,3.144,3.144,0,0,0,.189,1.136h2A5.319,5.319,0,0,1,27.4,30.21V20.588h-1.94v4.2a3.193,3.193,0,0,0-2.4-1.057c-2.145,0-3.58,1.467-3.58,4.369S20.882,32.386,22.791,32.386Zm.631-1.593c-1.246,0-2-.883-2-2.65,0-1.861.6-2.808,2.066-2.808a2.555,2.555,0,0,1,1.972,1.041v3.36A2.818,2.818,0,0,1,23.422,30.793Zm13,1.514H38.28l4.054-11.719H40.473l-3.06,9.1h-.032l-3.013-9.1h-2Zm9.543.126a4.52,4.52,0,0,0,3.517-1.514L48.454,29.91a3.036,3.036,0,0,1-2.35.978,2.072,2.072,0,0,1-2.24-2.177h5.726v-.457c0-3.407-1.8-4.527-3.675-4.527a3.98,3.98,0,0,0-3.991,4.353C41.924,31.156,43.864,32.434,45.962,32.434ZM43.9,27.26a1.964,1.964,0,0,1,2-1.956c1.167,0,1.8.678,1.909,1.956Zm7.4,5h1.94v-5.3a2.841,2.841,0,0,1,2.587-1.483c.11,0,.426.016.521.032l.063-1.782h-.126a3.279,3.279,0,0,0-3.013,1.53h-.032V23.885h-1.94Zm10.836.126c2.145,0,3.581-1.42,3.581-4.322s-1.4-4.338-3.312-4.338a3.383,3.383,0,0,0-2.666,1.262v-4.4h-1.94V32.26h1.94V31.33A3.193,3.193,0,0,0,62.129,32.386ZM61.7,30.841A2.555,2.555,0,0,1,59.732,29.8V26.44a2.818,2.818,0,0,1,2.035-1.057c1.246,0,2,.931,2,2.7C63.77,29.942,63.17,30.841,61.7,30.841Zm5.726,1.42h1.94v-5.3a2.841,2.841,0,0,1,2.587-1.483c.11,0,.426.016.521.032l.063-1.782h-.126a3.279,3.279,0,0,0-3.013,1.53h-.032V23.885h-1.94Zm8.06.126a4.03,4.03,0,0,0,3.092-1.2,3.035,3.035,0,0,0,.189,1.073h1.956a5.739,5.739,0,0,1-.237-2.051V26.755c0-1.956-.773-3.028-3.013-3.028a6,6,0,0,0-4.038,1.514l.946,1.215a4.545,4.545,0,0,1,2.823-1.136c.931,0,1.372.363,1.372,1.2v.252c-3.912.442-5.457,1.656-5.457,3.47A2.116,2.116,0,0,0,75.489,32.386Zm.71-1.5c-.71,0-1.167-.347-1.167-1.009,0-.915,1.23-1.483,3.549-1.8v1.845A3.344,3.344,0,0,1,76.2,30.888Zm8.691,1.53a4.152,4.152,0,0,0,3.06-1.293V32.26h1.956V23.885H87.95V29.7a3.4,3.4,0,0,1-2.271,1.088c-.852,0-1.246-.426-1.246-1.356V23.885H82.476v6.01A2.255,2.255,0,0,0,84.89,32.418Zm10.631.016a3.682,3.682,0,0,0,3.612-2.461l-1.609-.584a1.853,1.853,0,0,1-1.956,1.451c-1.278,0-2-.978-2-2.76,0-2,.931-2.729,2.035-2.729a1.831,1.831,0,0,1,1.861,1.4l1.64-.584a3.4,3.4,0,0,0-3.47-2.445c-1.861,0-4.022,1.151-4.022,4.353C91.609,31.14,93.581,32.434,95.521,32.434Zm5.158-.174h1.956V26.471a3.4,3.4,0,0,1,2.271-1.088c.852,0,1.246.426,1.246,1.356V32.26h1.956v-6.01a2.255,2.255,0,0,0-2.413-2.524,4.152,4.152,0,0,0-3.06,1.293V20.588h-1.956Zm13.076.174a4.52,4.52,0,0,0,3.517-1.514l-1.025-1.009a3.036,3.036,0,0,1-2.35.978,2.072,2.072,0,0,1-2.24-2.177h5.726v-.457c0-3.407-1.8-4.527-3.675-4.527a3.98,3.98,0,0,0-3.991,4.353C109.717,31.156,111.657,32.434,113.755,32.434Zm-2.066-5.174a1.964,1.964,0,0,1,2-1.956c1.167,0,1.8.678,1.909,1.956Zm7.4,5h1.94v-5.3a2.841,2.841,0,0,1,2.587-1.483c.11,0,.426.016.521.032l.063-1.782h-.126a3.279,3.279,0,0,0-3.013,1.53h-.032V23.885h-1.94Zm9.322.174c1.909,0,3.5-.82,3.5-2.587,0-1.956-1.751-2.319-3.186-2.634-.994-.221-1.83-.426-1.83-1.1,0-.473.347-.852,1.42-.852a4.206,4.206,0,0,1,2.366.915l.931-1.262a4.914,4.914,0,0,0-3.439-1.183c-1.845,0-3.107.994-3.107,2.461,0,1.94,1.719,2.319,3.155,2.65,1.009.237,1.861.442,1.861,1.12,0,.694-.631.962-1.672.962a4.127,4.127,0,0,1-2.634-.994l-1.057,1.183A5.3,5.3,0,0,0,128.408,32.434Zm8.518,0a3.682,3.682,0,0,0,3.612-2.461l-1.609-.584a1.853,1.853,0,0,1-1.956,1.451c-1.278,0-2-.978-2-2.76,0-2,.931-2.729,2.035-2.729a1.831,1.831,0,0,1,1.861,1.4l1.64-.584a3.4,3.4,0,0,0-3.47-2.445c-1.861,0-4.022,1.151-4.022,4.353C133.014,31.14,134.985,32.434,136.925,32.434Zm5.158-.174h1.956V26.471a3.4,3.4,0,0,1,2.271-1.088c.852,0,1.246.426,1.246,1.356V32.26h1.956v-6.01a2.255,2.255,0,0,0-2.413-2.524,4.152,4.152,0,0,0-3.06,1.293V20.588h-1.956Zm11.83.158a4.152,4.152,0,0,0,3.06-1.293V32.26h1.956V23.885h-1.956V29.7a3.4,3.4,0,0,1-2.271,1.088c-.852,0-1.246-.426-1.246-1.356V23.885H151.5v6.01A2.255,2.255,0,0,0,153.913,32.418Zm10.442-.047a9.569,9.569,0,0,0,1.42-.11V30.73a3.159,3.159,0,0,1-.836.11c-.962,0-1.23-.363-1.23-1.262V25.43h2.161V23.885h-2.161V20.967h-1.94v2.918h-1.451V25.43h1.451v4.637C161.768,31.582,162.225,32.371,164.355,32.371Zm2.555-.11h7.161v-1.5h-4.748l4.48-5.71V23.885h-6.562V25.43h4.133l-4.464,5.71Zm15.568.126a3.339,3.339,0,0,0,2.666-1.262,3.144,3.144,0,0,0,.189,1.136h2a5.32,5.32,0,0,1-.252-2.051V20.588h-1.94v4.2a3.193,3.193,0,0,0-2.4-1.057c-2.145,0-3.58,1.467-3.58,4.369S180.569,32.386,182.478,32.386Zm.631-1.593c-1.246,0-2-.883-2-2.65,0-1.861.6-2.808,2.066-2.808a2.555,2.555,0,0,1,1.972,1.041v3.36A2.817,2.817,0,0,1,183.109,30.793Zm9.716,1.64a4.52,4.52,0,0,0,3.517-1.514l-1.025-1.009a3.036,3.036,0,0,1-2.35.978,2.072,2.072,0,0,1-2.24-2.177h5.726v-.457c0-3.407-1.8-4.527-3.675-4.527a3.98,3.98,0,0,0-3.991,4.353C188.787,31.156,190.727,32.434,192.825,32.434Zm-2.066-5.174a1.964,1.964,0,0,1,2-1.956c1.167,0,1.8.678,1.909,1.956Zm10.3,5.174c1.909,0,3.5-.82,3.5-2.587,0-1.956-1.751-2.319-3.186-2.634-.994-.221-1.83-.426-1.83-1.1,0-.473.347-.852,1.42-.852a4.206,4.206,0,0,1,2.366.915l.931-1.262a4.914,4.914,0,0,0-3.439-1.183c-1.845,0-3.107.994-3.107,2.461,0,1.94,1.719,2.319,3.155,2.65,1.009.237,1.861.442,1.861,1.12,0,.694-.631.962-1.672.962a4.127,4.127,0,0,1-2.634-.994l-1.057,1.183A5.3,5.3,0,0,0,201.059,32.434ZM1.15,50.46H8.5v-1.8H3.122V38.788H1.15Zm10.789.126a4.03,4.03,0,0,0,3.092-1.2,3.035,3.035,0,0,0,.189,1.073h1.956a5.739,5.739,0,0,1-.237-2.051V44.955c0-1.956-.773-3.028-3.013-3.028a6,6,0,0,0-4.038,1.514l.946,1.215a4.545,4.545,0,0,1,2.823-1.136c.931,0,1.372.363,1.372,1.2v.252c-3.912.442-5.457,1.656-5.457,3.47A2.116,2.116,0,0,0,11.939,50.586Zm.71-1.5c-.71,0-1.167-.347-1.167-1.009,0-.915,1.23-1.483,3.549-1.8v1.845A3.344,3.344,0,0,1,12.649,49.088Zm6.372,1.372h1.956V44.671a3.4,3.4,0,0,1,2.271-1.088c.852,0,1.246.426,1.246,1.356V50.46H26.45V44.45a2.255,2.255,0,0,0-2.413-2.524,4.152,4.152,0,0,0-3.06,1.293V42.084H19.021Zm12.366.126a3.339,3.339,0,0,0,2.666-1.262,3.144,3.144,0,0,0,.189,1.136h2a5.319,5.319,0,0,1-.252-2.051V38.788h-1.94v4.2a3.193,3.193,0,0,0-2.4-1.057c-2.145,0-3.581,1.467-3.581,4.369S29.479,50.586,31.387,50.586Zm.631-1.593c-1.246,0-2-.883-2-2.65,0-1.861.6-2.808,2.066-2.808a2.555,2.555,0,0,1,1.972,1.041v3.36A2.818,2.818,0,0,1,32.018,48.993Zm9.716,1.64a4.52,4.52,0,0,0,3.517-1.514L44.227,48.11a3.036,3.036,0,0,1-2.35.978,2.072,2.072,0,0,1-2.24-2.177h5.726v-.457c0-3.407-1.8-4.527-3.675-4.527A3.98,3.98,0,0,0,37.7,46.28C37.7,49.356,39.637,50.633,41.734,50.633ZM39.668,45.46a1.964,1.964,0,0,1,2-1.956c1.167,0,1.8.678,1.909,1.956Zm10.3,5.174c1.909,0,3.5-.82,3.5-2.587,0-1.956-1.751-2.319-3.186-2.634-.994-.221-1.83-.426-1.83-1.1,0-.473.347-.852,1.42-.852a4.206,4.206,0,0,1,2.366.915l.931-1.262a4.914,4.914,0,0,0-3.439-1.183c-1.845,0-3.107.994-3.107,2.461,0,1.94,1.719,2.319,3.155,2.65,1.009.237,1.861.442,1.861,1.12,0,.694-.631.962-1.672.962a4.127,4.127,0,0,1-2.634-.994l-1.057,1.183A5.3,5.3,0,0,0,49.968,50.633Zm9.385-.174h1.83v-8.5h.032l5.726,8.5h1.8V38.788h-1.83v8.328h-.032l-5.521-8.328h-2Zm15.41.174a3.967,3.967,0,0,0,4.085-4.353c0-3.092-2.051-4.353-4.085-4.353-2.051,0-4.085,1.262-4.085,4.353A3.967,3.967,0,0,0,74.763,50.633Zm0-1.625c-1.483,0-2.129-1.136-2.129-2.729,0-1.688.726-2.7,2.129-2.7,1.467,0,2.129,1.136,2.129,2.7C76.893,48,76.167,49.009,74.763,49.009Zm5.789,1.451h1.94v-5.3a2.841,2.841,0,0,1,2.587-1.483c.11,0,.426.016.521.032l.063-1.782h-.126a3.279,3.279,0,0,0-3.013,1.53h-.032V42.084h-1.94Zm8.959.126a3.339,3.339,0,0,0,2.666-1.262,3.145,3.145,0,0,0,.189,1.136h2a5.319,5.319,0,0,1-.252-2.051V38.788h-1.94v4.2a3.193,3.193,0,0,0-2.4-1.057c-2.145,0-3.581,1.467-3.581,4.369S87.6,50.586,89.511,50.586Zm.631-1.593c-1.246,0-2-.883-2-2.65,0-1.861.6-2.808,2.066-2.808a2.555,2.555,0,0,1,1.972,1.041v3.36A2.818,2.818,0,0,1,90.142,48.993Zm6.152,1.467h1.94v-5.3a2.841,2.841,0,0,1,2.587-1.483c.11,0,.426.016.521.032l.063-1.782h-.126a3.279,3.279,0,0,0-3.013,1.53h-.032V42.084h-1.94Zm6.5,0h1.956V44.671a3.4,3.4,0,0,1,2.271-1.088c.852,0,1.246.426,1.246,1.356V50.46h1.956V44.45a2.255,2.255,0,0,0-2.413-2.524,4.152,4.152,0,0,0-3.06,1.293V38.788h-1.956Zm13.076.174a4.52,4.52,0,0,0,3.517-1.514L118.36,48.11a3.036,3.036,0,0,1-2.35.978,2.072,2.072,0,0,1-2.24-2.177H119.5v-.457c0-3.407-1.8-4.527-3.675-4.527a3.98,3.98,0,0,0-3.991,4.353C111.83,49.356,113.77,50.633,115.868,50.633ZM113.8,45.46a1.964,1.964,0,0,1,2-1.956c1.167,0,1.8.678,1.909,1.956Zm7.461-4.827h1.987V38.946h-1.987Zm.016,9.827h1.956V42.084h-1.956Zm4.211,0h1.956V44.671a3.4,3.4,0,0,1,2.271-1.088c.852,0,1.246.426,1.246,1.356V50.46h1.956V44.45a2.255,2.255,0,0,0-2.413-2.524,4.152,4.152,0,0,0-3.06,1.293V42.084H125.49Zm9.29-4.259h3.9V44.813h-3.9Zm7.382,4.259H143.9l2.208-8.943h.032l2.1,8.943h1.719l3.076-11.672h-1.845l-1.451,6.136c-.221.994-.394,1.609-.568,2.618h-.032c-.173-.978-.363-1.672-.615-2.666l-1.451-6.088h-1.893l-1.4,6.057c-.237.931-.442,1.8-.6,2.7h-.032c-.158-.915-.379-1.782-.615-2.713l-1.483-6.041h-1.987Zm14.874.174a4.52,4.52,0,0,0,3.517-1.514l-1.025-1.009a3.036,3.036,0,0,1-2.35.978,2.072,2.072,0,0,1-2.24-2.177h5.726v-.457c0-3.407-1.8-4.527-3.675-4.527A3.98,3.98,0,0,0,153,46.28C153,49.356,154.938,50.633,157.036,50.633ZM154.97,45.46a1.964,1.964,0,0,1,2-1.956c1.167,0,1.8.678,1.909,1.956Zm10.3,5.174c1.909,0,3.5-.82,3.5-2.587,0-1.956-1.751-2.319-3.186-2.634-.994-.221-1.83-.426-1.83-1.1,0-.473.347-.852,1.42-.852a4.206,4.206,0,0,1,2.366.915l.931-1.262a4.914,4.914,0,0,0-3.439-1.183c-1.845,0-3.107.994-3.107,2.461,0,1.94,1.719,2.319,3.155,2.65,1.009.237,1.861.442,1.861,1.12,0,.694-.631.962-1.672.962a4.127,4.127,0,0,1-2.634-.994l-1.057,1.183A5.3,5.3,0,0,0,165.27,50.633Zm8.281-.063a9.568,9.568,0,0,0,1.42-.11V48.93a3.158,3.158,0,0,1-.836.11c-.962,0-1.23-.363-1.23-1.262V43.63h2.161V42.084H172.9V39.166h-1.94v2.918h-1.451V43.63h1.451v4.637C170.964,49.782,171.421,50.57,173.55,50.57Zm3.833-.11h1.94V43.63h1.83V42.084h-1.83v-.741c0-.9.568-1.088,1.262-1.088a3.624,3.624,0,0,1,.662.063v-1.5c-.142-.016-.789-.079-1.151-.079-2.129,0-2.713,1.088-2.713,2.492v.852h-1.451V43.63h1.451Zm6.688.126a4.03,4.03,0,0,0,3.092-1.2,3.036,3.036,0,0,0,.189,1.073h1.956a5.739,5.739,0,0,1-.237-2.051V44.955c0-1.956-.773-3.028-3.013-3.028a6,6,0,0,0-4.038,1.514l.946,1.215a4.545,4.545,0,0,1,2.823-1.136c.931,0,1.372.363,1.372,1.2v.252c-3.912.442-5.458,1.656-5.458,3.47A2.116,2.116,0,0,0,184.071,50.586Zm.71-1.5c-.71,0-1.167-.347-1.167-1.009,0-.915,1.23-1.483,3.549-1.8v1.845A3.344,3.344,0,0,1,184.781,49.088Zm6.451,1.372h1.956V38.788h-1.956Zm7.776.174a4.52,4.52,0,0,0,3.517-1.514L201.5,48.11a3.036,3.036,0,0,1-2.35.978,2.072,2.072,0,0,1-2.24-2.177h5.726v-.457c0-3.407-1.8-4.527-3.675-4.527a3.98,3.98,0,0,0-3.991,4.353C194.97,49.356,196.91,50.633,199.008,50.633Zm-2.066-5.174a1.964,1.964,0,0,1,2-1.956c1.167,0,1.8.678,1.909,1.956Zm7.4,5H206.3V44.671a3.4,3.4,0,0,1,2.271-1.088c.852,0,1.246.426,1.246,1.356V50.46h1.956V44.45a2.255,2.255,0,0,0-2.413-2.524,4.152,4.152,0,0,0-3.06,1.293V42.084H204.34Z" transform="translate(-0.819 1.097)"></path>
</svg>