<?xml version="1.0" standalone="no"?>
<!DOCTYPE svg PUBLIC "-//W3C//DTD SVG 20010904//EN"
 "http://www.w3.org/TR/2001/REC-SVG-20010904/DTD/svg10.dtd">
<svg version="1.0" xmlns="http://www.w3.org/2000/svg"
 width="1902.000000pt" height="1611.000000pt" viewBox="0 0 1902.000000 1611.000000"
 preserveAspectRatio="xMidYMid meet">

<g transform="translate(0.000000,1611.000000) scale(0.100000,-0.100000)"
fill="#000000" stroke="none">
<path d="M13065 16071 c-1024 -358 -2739 -1471 -4015 -2606 -995 -884 -1741
-1747 -2254 -2605 -100 -166 -307 -576 -354 -697 -130 -336 -171 -884 -117
-1552 16 -195 39 -402 56 -510 5 -35 8 -65 7 -67 -5 -5 -245 42 -335 65 -220
57 -499 170 -788 321 -186 96 -418 220 -423 225 -2 1 6 39 18 84 25 98 27 225
5 298 -18 62 -87 142 -154 180 -25 15 -47 28 -49 29 -2 1 2 36 9 78 15 87 4
182 -32 288 -17 50 -212 475 -223 485 -2 2 -17 -48 -35 -109 -99 -348 -308
-572 -901 -960 -154 -101 -227 -142 -295 -167 -555 -204 -942 -561 -1160
-1071 -82 -190 -229 -670 -223 -726 3 -25 -1 -27 -88 -50 -330 -86 -643 -250
-904 -473 -127 -109 -234 -217 -443 -451 -111 -124 -234 -260 -274 -303 -40
-43 -73 -83 -73 -88 0 -6 11 -26 24 -45 l23 -34 -23 -48 c-139 -285 71 -582
465 -656 100 -19 297 -20 399 -2 39 7 72 10 72 7 0 -3 -14 -20 -32 -38 l-31
-32 28 -41 c15 -22 32 -40 37 -40 28 0 831 531 1271 840 153 107 285 200 295
207 14 9 99 -12 438 -109 l421 -119 27 -57 c164 -335 488 -756 811 -1051 783
-718 1800 -1150 2945 -1252 173 -16 669 -16 870 0 701 54 1173 162 2490 568
1014 312 1747 530 1756 521 1 -2 -13 -28 -31 -58 -19 -30 -62 -118 -96 -195
-34 -77 -86 -187 -115 -245 -127 -251 -217 -839 -170 -1103 41 -223 163 -360
353 -395 49 -9 53 -8 95 26 23 19 81 57 128 86 106 64 157 114 166 160 3 20 9
36 11 36 3 0 36 -22 73 -50 37 -27 98 -64 136 -82 60 -29 79 -33 149 -33 67 0
88 5 130 27 58 30 119 90 134 131 18 46 12 118 -13 179 -30 73 -85 154 -215
313 -180 221 -228 305 -163 288 50 -13 304 -9 362 6 81 20 143 55 183 101 46
54 54 97 28 154 -25 58 -91 109 -245 191 -126 67 -206 119 -206 134 0 5 55 53
122 107 237 191 447 423 489 539 10 28 21 37 49 45 409 107 613 139 932 147
250 6 397 -4 623 -42 738 -126 1498 -542 2305 -1263 128 -114 606 -569 637
-607 14 -16 97 -103 184 -192 l159 -163 35 70 c68 136 79 258 35 389 -10 31
-17 57 -16 59 2 1 25 -7 52 -18 105 -46 211 -58 353 -44 l62 7 -6 76 c-11 139
-35 286 -65 398 -253 965 -1138 1667 -2771 2198 -651 211 -1467 406 -2474 591
l-300 55 -260 98 c-143 55 -339 127 -435 161 -96 35 -184 66 -195 70 -18 7
-16 10 15 21 78 28 212 104 274 155 72 59 132 140 142 192 4 18 9 34 13 36 3
2 44 -5 91 -15 113 -26 259 -27 330 -4 97 32 147 93 219 266 53 128 35 122
348 123 242 2 276 4 346 24 122 34 201 76 271 145 110 109 150 225 150 437 0
115 -13 254 -30 311 -3 12 18 25 88 54 461 189 680 357 732 560 20 76 20 166
0 263 -9 42 -17 83 -18 91 -1 10 52 30 181 67 313 91 499 169 663 278 385 257
487 601 313 1065 -35 94 -35 94 -16 120 11 14 84 75 164 136 79 60 167 132
195 160 213 212 217 441 12 716 -68 93 -206 234 -320 327 l-77 64 73 58 c251
200 334 448 229 683 -61 135 -206 272 -358 337 l-44 19 60 127 c165 346 182
553 61 739 -111 173 -356 319 -738 441 -81 26 -156 56 -166 66 -26 26 -23 102
8 190 15 40 79 177 144 303 138 272 174 368 174 475 1 65 -3 82 -27 123 -100
170 -431 169 -1062 -4 -78 -21 -194 -46 -256 -54 -565 -78 -1186 -258 -1766
-512 -7 -3 25 55 71 128 194 313 285 502 294 611 4 64 3 68 -26 97 -41 41 -71
40 -207 -8z m109 -150 c-48 -129 -192 -387 -359 -642 l-82 -126 -154 -76
c-1628 -805 -3323 -2280 -4932 -4293 -116 -145 -144 -187 -183 -275 -133 -298
-213 -583 -260 -924 -28 -199 -25 -675 5 -925 25 -207 64 -442 114 -692 19
-93 31 -168 28 -168 -3 0 -42 14 -86 30 -210 80 -545 168 -702 186 -35 3 -63
9 -63 11 0 3 -11 91 -25 196 -104 816 -78 1527 70 1902 166 420 538 1030 947
1553 1066 1362 2826 2827 4567 3801 364 204 877 441 1111 513 22 7 24 -19 4
-71z m2662 -106 c28 -8 61 -26 75 -41 20 -22 24 -35 23 -87 -1 -86 -27 -153
-170 -437 -139 -278 -174 -370 -174 -460 0 -119 47 -173 187 -215 172 -52 290
-97 418 -160 279 -138 395 -275 395 -468 0 -123 -37 -235 -167 -506 -40 -85
-70 -158 -66 -162 5 -3 38 -15 74 -26 99 -30 196 -88 270 -163 142 -144 174
-307 93 -476 -42 -85 -158 -203 -281 -284 l-103 -68 123 -98 c427 -342 578
-604 472 -814 -39 -76 -111 -148 -265 -264 -155 -116 -199 -157 -223 -208 -23
-48 -21 -78 7 -146 80 -191 108 -362 82 -507 -39 -227 -193 -405 -473 -548
-136 -69 -253 -113 -490 -182 -237 -70 -305 -95 -300 -110 66 -170 83 -323 47
-418 -59 -158 -231 -278 -655 -458 -93 -39 -172 -73 -173 -75 -2 -1 6 -58 18
-126 27 -148 32 -354 11 -438 -41 -162 -146 -259 -330 -306 -88 -22 -260 -30
-447 -22 -142 7 -160 6 -188 -10 -47 -27 -99 -104 -141 -205 -46 -114 -66
-142 -118 -169 -76 -39 -238 -24 -460 41 l-68 20 6 -65 c10 -91 -9 -137 -89
-212 -217 -202 -761 -329 -1320 -307 l-179 7 -96 -96 c-119 -118 -138 -126
-307 -126 -102 0 -143 -5 -245 -30 -472 -115 -891 -74 -1224 121 l-69 40 -18
-23 c-23 -31 -42 -67 -37 -72 22 -19 162 -92 230 -120 206 -85 380 -118 619
-118 181 0 314 16 491 58 88 21 150 29 269 33 150 6 158 7 222 39 49 24 84 52
133 105 l66 72 262 1 c281 2 424 15 644 59 l122 25 213 -74 c254 -89 425 -151
671 -245 175 -67 194 -72 467 -121 1199 -216 2167 -463 2905 -740 1304 -490
2045 -1128 2264 -1951 30 -110 61 -285 61 -341 0 -27 -1 -28 -58 -28 -84 0
-164 24 -277 84 -55 29 -120 60 -145 70 -25 10 -67 27 -93 37 -27 11 -46 16
-44 12 3 -5 30 -50 61 -101 117 -194 153 -293 142 -388 -3 -29 -8 -59 -12 -67
-3 -9 -84 65 -247 230 -973 984 -1727 1517 -2506 1773 -391 129 -720 177
-1129 167 -304 -8 -508 -37 -838 -121 l-131 -33 -28 34 c-22 28 -116 79 -487
263 -253 126 -466 234 -472 240 -30 24 -154 62 -207 63 -138 1 -170 -105 -84
-274 51 -101 49 -143 -19 -344 -64 -190 -89 -275 -82 -282 3 -3 52 1 111 7
106 13 138 10 94 -10 -13 -5 -197 -60 -409 -121 -462 -132 -710 -207 -1435
-431 -913 -281 -1322 -394 -1709 -473 -939 -189 -1825 -174 -2621 46 -817 225
-1517 620 -2061 1164 -297 296 -489 555 -691 929 -35 65 -55 92 -73 97 -14 4
-187 53 -385 109 -198 55 -366 103 -374 106 -8 2 31 36 93 81 64 46 108 85
111 97 2 12 14 144 26 294 l21 272 -22 53 c-56 129 -146 229 -255 283 -110 54
-177 64 -477 71 -203 5 -268 9 -272 19 -7 18 105 402 160 547 192 507 475 820
946 1047 79 37 179 81 223 96 63 22 133 63 331 195 295 197 443 310 569 434
109 108 188 210 248 323 l44 83 46 -99 c64 -139 81 -202 81 -302 1 -75 -3 -93
-32 -154 -17 -37 -32 -70 -32 -71 0 -2 24 -9 53 -15 172 -41 241 -140 217
-313 -8 -56 -41 -174 -64 -228 -6 -13 41 -42 241 -147 494 -259 664 -337 910
-418 183 -60 351 -96 648 -139 318 -45 454 -80 761 -192 l120 -44 58 -281 c32
-155 74 -370 92 -478 19 -107 34 -195 34 -196 0 -2 103 15 105 18 6 6 -66 405
-115 638 -227 1087 -255 1267 -267 1690 -13 486 60 899 234 1319 63 153 82
182 278 426 799 994 1677 1907 2530 2630 1484 1259 2972 2014 4344 2205 93 13
225 41 330 70 394 107 692 145 827 105z m-14033 -9577 c-101 -105 -198 -240
-287 -400 l-37 -67 -66 49 c-35 28 -78 57 -95 66 -54 28 -161 65 -222 78 l-59
12 399 156 c219 86 403 156 409 157 5 0 -14 -23 -42 -51z m-705 -388 c302 -77
446 -284 343 -494 -47 -96 -152 -191 -283 -255 -144 -72 -230 -92 -410 -98
-128 -5 -161 -3 -242 16 -175 41 -307 126 -364 236 -22 41 -27 64 -27 125 0
95 29 162 106 243 54 58 55 58 297 152 134 52 258 96 275 98 60 9 228 -4 305
-23z"/>
<path d="M3288 7901 c-120 -39 -216 -124 -271 -240 -58 -123 -47 -293 28 -411
151 -239 494 -275 693 -73 94 96 140 216 129 343 -14 165 -123 311 -277 372
-78 30 -224 35 -302 9z"/>
<path d="M3550 1949 c-175 -18 -374 -86 -497 -170 -69 -47 -178 -154 -228
-224 -257 -361 -260 -917 -7 -1231 175 -216 516 -339 892 -321 166 9 486 58
601 92 13 4 17 57 28 383 8 207 16 427 18 487 l5 110 -306 0 -306 1 0 -32 c0
-18 -3 -39 -6 -48 -5 -13 24 -14 250 -9 l256 6 0 -46 c0 -79 -31 -762 -35
-765 -13 -13 -192 -55 -305 -72 -523 -77 -925 64 -1086 382 -91 179 -112 479
-50 711 84 315 268 516 561 610 138 44 191 52 375 52 190 0 297 -16 492 -75
l93 -27 3 55 c2 30 -1 59 -6 64 -14 14 -253 56 -387 67 -137 12 -233 12 -355
0z"/>
<path d="M15190 1953 c-201 -26 -337 -112 -404 -253 -28 -58 -31 -75 -31 -160
0 -52 6 -113 12 -136 32 -102 141 -222 408 -447 363 -307 419 -378 420 -528 0
-68 -4 -84 -35 -145 -42 -82 -103 -133 -200 -166 -56 -20 -84 -23 -210 -22
-169 1 -243 19 -455 110 -6 3 -8 -18 -5 -58 l5 -62 75 -23 c145 -44 229 -57
375 -57 160 -1 227 13 342 69 82 40 138 97 180 184 26 51 28 66 28 171 0 108
-2 119 -31 180 -17 36 -51 90 -76 120 -45 55 -73 80 -400 359 -263 224 -332
319 -332 456 0 61 4 78 34 134 40 75 102 128 187 163 52 20 74 23 203 22 123
-1 160 -5 245 -27 55 -15 103 -27 107 -27 6 0 0 100 -7 108 -15 18 -356 46
-435 35z"/>
<path d="M5187 1348 c-162 -321 -379 -748 -482 -950 l-187 -368 64 0 64 0 219
455 219 455 392 0 392 0 62 -167 c34 -93 105 -297 158 -455 l97 -288 62 0 62
0 -35 97 c-233 640 -492 1362 -631 1761 l-15 42 -73 0 -73 0 -295 -582z m583
-130 l68 -188 -354 0 -354 0 61 123 c34 67 127 250 207 406 l145 284 79 -219
c44 -121 110 -303 148 -406z"/>
<path d="M6676 1703 c-12 -430 -47 -1348 -56 -1478 -6 -72 -10 -145 -10 -162
l0 -33 65 0 65 0 0 153 c0 238 29 1180 46 1530 l7 129 296 -4 c325 -5 360 -11
439 -68 160 -116 156 -427 -8 -591 -110 -110 -312 -165 -519 -140 -51 7 -96
10 -98 7 -3 -2 116 -175 263 -383 147 -208 305 -435 351 -506 l83 -127 71 0
71 0 -18 27 c-10 16 -156 221 -326 456 -169 236 -308 432 -308 435 0 4 40 8
89 9 172 4 306 57 411 163 109 109 160 232 160 386 0 172 -76 310 -209 379
-70 36 -171 44 -522 45 l-337 0 -6 -227z"/>
<path d="M8120 1713 c0 -321 -50 -1585 -66 -1660 -4 -22 -1 -23 60 -23 58 0
64 2 70 23 3 12 6 112 6 222 0 268 34 1369 46 1503 l6 64 296 -4 c360 -6 377
-10 464 -98 68 -70 88 -125 88 -246 0 -144 -54 -263 -155 -344 -116 -92 -291
-132 -483 -111 -57 7 -105 11 -107 9 -1 -2 119 -174 267 -383 148 -209 306
-437 351 -507 l82 -127 73 -1 73 0 -23 33 c-12 17 -161 225 -330 460 -170 236
-308 429 -308 430 0 1 37 2 83 3 113 2 187 19 287 66 144 69 240 186 280 344
62 241 -40 470 -238 536 -63 21 -88 22 -444 26 l-378 4 0 -219z"/>
<path d="M9560 1803 c0 -71 -9 -339 -21 -598 -24 -534 -22 -706 10 -806 75
-235 298 -373 642 -395 363 -23 668 103 774 320 67 136 78 220 100 716 9 195
22 463 30 595 20 333 26 295 -44 295 l-58 0 -7 -232 c-12 -395 -45 -1017 -61
-1118 -16 -107 -34 -164 -71 -228 -111 -190 -318 -272 -648 -259 -160 6 -229
22 -330 75 -124 65 -196 156 -233 295 -24 90 -21 299 16 925 17 293 31 535 31
537 0 3 -29 5 -65 5 l-65 0 0 -127z"/>
<path d="M11577 1923 c-4 -3 -7 -92 -7 -197 0 -330 -45 -1446 -66 -1643 l-5
-53 525 0 526 0 0 48 0 47 -465 -3 -465 -3 5 83 c3 46 10 216 15 378 12 323
46 1098 55 1253 l7 97 -60 0 c-32 0 -62 -3 -65 -7z"/>
<path d="M12850 1808 c0 -68 -9 -323 -20 -568 -24 -533 -25 -691 -5 -784 18
-86 61 -178 109 -233 46 -53 157 -127 236 -158 185 -73 488 -83 700 -24 169
46 316 151 378 268 68 127 85 246 107 746 8 193 22 458 30 590 8 132 15 250
15 263 0 20 -4 22 -59 22 l-58 0 -7 -222 c-13 -410 -46 -1022 -62 -1127 -24
-163 -71 -261 -163 -342 -108 -96 -242 -139 -456 -146 -196 -7 -297 10 -414
68 -173 86 -249 208 -266 432 -6 70 40 1011 61 1265 l6 72 -66 0 -66 0 0 -122z"/>
</g>
</svg>
